HIERARCHY
ROOT root
{
	OFFSET 0.000000 0.000000 0.000000
	CHANNELS 6 Xposition Yposition Zposition Zrotation Yrotation Xrotation
	JOINT lhip
	{
		OFFSET 0.058581 -0.082280 -0.017664
		CHANNELS 3 Zrotation Yrotation Xrotation
		JOINT lknee
		{
			OFFSET 0.043451 -0.386469 0.008037
			CHANNELS 3 Zrotation Yrotation Xrotation
			JOINT lankle
			{
				OFFSET -0.014790 -0.426874 -0.037428
				CHANNELS 3 Zrotation Yrotation Xrotation
				JOINT ltoe
				{
					OFFSET 0.041054 -0.060286 0.122042
					CHANNELS 3 Zrotation Yrotation Xrotation
					End Site
					{
						OFFSET 0.000000 0.000000 0.000000
					}
				}
			}
		}
	}
	JOINT rhip
	{
		OFFSET -0.060310 -0.090513 -0.013543
		CHANNELS 3 Zrotation Yrotation Xrotation
		JOINT rknee
		{
			OFFSET -0.043257 -0.383688 -0.004843
			CHANNELS 3 Zrotation Yrotation Xrotation
			JOINT rankle
			{
				OFFSET 0.019056 -0.420046 -0.034562
				CHANNELS 3 Zrotation Yrotation Xrotation
				JOINT rtoe
				{
					OFFSET -0.034840 -0.062106 0.130323
					CHANNELS 3 Zrotation Yrotation Xrotation
					End Site
					{
						OFFSET 0.000000 0.000000 0.000000
					}
				}
			}
		}
	}
	JOINT lowerback
	{
		OFFSET 0.004439 0.124404 -0.038385
		CHANNELS 3 Zrotation Yrotation Xrotation
		JOINT upperback
		{
			OFFSET 0.004488 0.137956 0.026820
			CHANNELS 3 Zrotation Yrotation Xrotation
			JOINT chest
			{
				OFFSET -0.002265 0.056032 0.002855
				CHANNELS 3 Zrotation Yrotation Xrotation
				JOINT lowerneck
				{
					OFFSET -0.013390 0.211636 -0.033468
					CHANNELS 3 Zrotation Yrotation Xrotation
					JOINT upperneck
					{
						OFFSET 0.010113 0.088937 0.050410
						CHANNELS 3 Zrotation Yrotation Xrotation
						End Site
						{
							OFFSET 0.000000 0.000000 0.000000
						}
					}
				}
				JOINT lclavicle
				{
					OFFSET 0.071702 0.114000 -0.018898
					CHANNELS 3 Zrotation Yrotation Xrotation
					JOINT lshoulder
					{
						OFFSET 0.122921 0.045205 -0.019046
						CHANNELS 3 Zrotation Yrotation Xrotation
						JOINT lelbow
						{
							OFFSET 0.255332 -0.015649 -0.022946
							CHANNELS 3 Zrotation Yrotation Xrotation
							JOINT lwrist
							{
								OFFSET 0.265709 0.012698 -0.007375
								CHANNELS 3 Zrotation Yrotation Xrotation
								End Site
								{
									OFFSET 0.000000 0.000000 0.000000
								}
							}
						}
					}
				}
				JOINT rclavicle
				{
					OFFSET -0.082954 0.112472 -0.023707
					CHANNELS 3 Zrotation Yrotation Xrotation
					JOINT rshoulder
					{
						OFFSET -0.113228 0.046853 -0.008472
						CHANNELS 3 Zrotation Yrotation Xrotation
						JOINT relbow
						{
							OFFSET -0.260127 -0.014369 -0.031269
							CHANNELS 3 Zrotation Yrotation Xrotation
							JOINT rwrist
							{
								OFFSET -0.269108 0.006794 -0.006027
								CHANNELS 3 Zrotation Yrotation Xrotation
								End Site
								{
									OFFSET 0.000000 0.000000 0.000000
								}
							}
						}
					}
				}
			}
		}
	}
}
MOTION
Frames: 12
Frame Time: 0.033333
0.585243 0.798588 0.981811 3.932202 -3.410256 88.028746 1.750102 -3.180660 4.672237 -4.856343 -6.515659 1.707643 3.585765 5.952939 -10.043382 0.000000 -0.000000 0.000000 -6.501778 -4.727830 7.790502 -2.400057 4.630895 1.840057 -0.291033 -7.528789 -13.396497 0.000000 -0.000000 0.000000 -2.588797 5.964740 -1.647210 -5.881649 4.406182 3.645759 -6.883158 3.567974 1.580052 5.724226 -7.242902 2.200202 6.790425 -12.853520 16.769760 -32.461832 18.301134 5.320137 -55.889977 3.705628 8.463253 8.330558 -34.427593 -14.297189 -9.586022 -10.985172 -46.896074 33.211003 -2.812293 5.419213 55.118723 6.900799 18.032702 -10.769823 25.605386 6.595392 13.212190 3.164988 10.153246 
0.585268 0.797673 0.981556 3.261960 -3.363048 87.918724 1.800793 -3.231826 5.187822 -4.794332 -6.705606 1.352892 3.350739 6.284321 -10.174218 0.000000 -0.000000 0.000000 -6.534815 -4.416056 7.989655 -2.402218 4.992332 1.597483 0.059507 -7.511204 -13.354209 0.000000 -0.000000 0.000000 -2.295437 5.932855 -1.802173 -6.016299 4.966947 3.501481 -6.954930 3.927347 2.180817 5.875898 -7.615440 1.947658 6.691724 -13.239432 16.657864 -32.317702 19.028743 5.613738 -55.546115 4.766117 8.807814 8.382131 -36.707648 -12.353822 -11.503639 -11.875744 -46.674135 32.925660 -2.928703 5.592792 55.400259 6.913087 18.073082 -11.256167 25.958263 6.654786 13.895827 2.737853 9.921800 
0.585102 0.797228 0.981514 3.034098 -3.460595 87.926528 1.596866 -3.556545 5.329016 -4.717336 -6.459550 1.183811 3.286921 6.569272 -10.219878 0.000000 -0.000000 0.000000 -6.749504 -4.421803 7.971282 -2.228718 5.164130 1.536417 -0.014595 -7.395499 -13.173518 0.000000 -0.000000 0.000000 -2.371793 6.203958 -1.990244 -5.936772 5.166990 3.663308 -7.144840 4.011954 2.405355 6.474813 -7.401051 1.482922 6.353376 -13.949706 16.820489 -31.410614 20.078362 5.709812 -54.982399 5.305464 9.531571 6.149648 -38.838087 -8.904403 -12.943028 -13.697361 -46.687852 32.898147 -3.854287 5.274597 55.664867 7.391588 17.999086 -11.302864 25.663186 6.426150 14.397789 3.025089 10.429028 
0.583604 0.796492 0.981349 2.519052 -3.152929 88.092391 2.081671 -2.969830 5.371392 -4.755113 -6.515138 1.009358 3.315785 6.565817 -10.264908 0.000000 -0.000000 0.000000 -6.198367 -3.978997 7.679351 -2.423454 5.340382 1.703251 0.083575 -7.577595 -13.323853 0.000000 -0.000000 0.000000 -2.822661 6.336260 -2.792880 -5.192556 5.583845 4.151051 -6.581307 4.463426 2.347215 6.160955 -7.306729 1.849245 6.163052 -14.481453 16.583305 -30.216200 20.071471 6.132046 -55.221829 5.599195 9.831527 4.434101 -38.730250 -5.280221 -13.917252 -14.294361 -45.090070 32.488835 -3.717799 5.541668 55.118619 6.858074 17.725193 -11.114691 25.883678 7.305034 14.946623 2.958453 9.510846 
0.584222 0.798033 0.981853 3.487744 -3.105644 87.971432 2.069794 -3.149571 5.008500 -4.742557 -6.821250 1.548862 3.215718 6.424577 -10.346845 0.000000 -0.000000 0.000000 -6.159342 -4.209614 7.918681 -2.390050 5.017480 1.703434 0.333653 -7.803489 -13.114152 0.000000 -0.000000 0.000000 -2.827657 6.186675 -2.270165 -5.056075 5.022421 4.016472 -6.482809 4.298683 2.249131 6.285007 -6.977074 1.461557 5.719946 -14.703302 17.161277 -30.141798 19.734461 5.830038 -54.744793 5.517000 9.566029 4.543169 -37.610625 -2.878100 -15.967876 -14.097091 -40.394507 32.536695 -3.652205 5.302171 54.606989 6.506422 17.386763 -10.900455 25.776199 8.261068 16.568537 2.650966 9.194038 
0.583145 0.798606 0.982271 4.046123 -2.859363 87.969107 2.511933 -2.764691 4.711467 -4.968931 -6.863941 1.763428 3.244369 6.205581 -10.461710 0.000000 -0.000000 0.000000 -5.845486 -4.587990 7.747214 -2.342678 4.651613 2.121932 0.369305 -7.555566 -13.370499 0.000000 -0.000000 0.000000 -2.926409 6.153759 -2.159288 -4.737238 4.614283 4.021958 -6.236434 4.124069 2.193380 6.576334 -6.376957 1.167839 5.269267 -14.961411 17.053262 -29.844163 19.188085 5.095869 -54.064213 5.207710 8.949777 5.312598 -35.847358 -0.259860 -16.517004 -11.733401 -33.206627 32.559609 -3.587282 4.893869 54.795255 6.335788 16.607611 -11.086183 25.002012 8.402785 15.490559 2.711477 9.754816 
0.583123 0.799123 0.981923 4.509707 -2.768873 87.957050 2.649622 -2.066109 4.658508 -4.892917 -7.696671 1.587538 3.419136 6.024837 -10.079273 0.000000 -0.000000 0.000000 -5.858775 -4.690958 7.741506 -2.026104 4.393740 2.186862 0.220649 -7.668272 -13.398502 0.000000 -0.000000 0.000000 -2.793861 5.990573 -1.980704 -4.547133 4.314713 3.937575 -6.072150 3.985441 2.068170 6.262311 -6.223564 1.179434 5.215417 -14.881034 16.798981 -29.819054 18.201390 4.590665 -53.182335 4.546129 8.310627 6.523084 -33.971650 0.488547 -15.767856 -9.076890 -28.303070 32.341177 -3.115657 4.896356 54.561151 5.880483 16.110841 -11.086755 24.689857 9.151266 15.491288 2.635375 9.154968 
0.581866 0.798959 0.981733 5.185284 -2.818351 88.251015 2.821537 -1.690740 4.238619 -4.849862 -8.230782 1.570332 2.941833 5.599212 -9.785999 0.000000 -0.000000 0.000000 -5.627737 -4.906186 7.517041 -2.211604 4.404876 2.172009 0.050284 -8.148759 -13.440510 0.000000 -0.000000 0.000000 -3.226939 5.920701 -2.352943 -4.218808 3.802296 3.915615 -5.820492 3.668741 2.117246 6.323557 -6.367422 1.003796 5.143117 -15.515436 16.404938 -29.601751 17.050629 4.217990 -51.621917 3.375131 8.013488 7.085992 -32.006609 0.512849 -11.294421 -6.378738 -24.383934 32.803226 -3.001027 4.411621 54.252513 5.813854 15.830897 -10.950064 23.616339 8.722250 13.022695 3.296767 9.115451 
0.581189 0.799379 0.981551 5.354756 -2.903824 88.175562 2.896860 -1.405116 4.452757 -4.748401 -9.078542 1.314906 2.706951 5.300314 -9.634433 0.000000 -0.000000 0.000000 -5.684508 -4.905523 7.633869 -2.219054 4.295708 2.135915 0.134727 -8.158408 -13.440597 0.000000 -0.000000 0.000000 -3.383883 5.768286 -2.157295 -4.016678 3.306389 3.828900 -5.540056 3.470959 1.896023 5.861288 -7.051367 1.025943 4.791791 -16.352295 16.090598 -29.655893 15.642299 3.253256 -50.114462 2.233087 7.151666 8.216310 -29.136150 -0.603590 -7.718112 -4.406766 -19.496121 32.223986 -2.222900 4.200515 54.684335 4.890315 15.841599 -11.130874 23.862492 8.311937 11.543382 2.485221 8.645724 
0.579250 0.800787 0.981017 5.956447 -2.933445 88.139490 3.199609 -0.898731 3.978786 -5.094538 -9.155942 1.789132 2.174410 4.974533 -9.657328 0.000000 -0.000000 0.000000 -5.558923 -5.389637 7.820159 -2.351374 4.376607 2.016028 0.284974 -8.201478 -13.622604 0.000000 -0.000000 0.000000 -3.467379 5.782355 -1.939411 -3.658917 2.324276 3.958262 -5.394783 2.988687 1.709822 5.271866 -8.416645 0.297846 4.005813 -18.815469 16.032271 -30.056003 13.007273 2.246924 -47.686028 0.323020 6.138567 9.693344 -24.111365 -0.721531 -2.125081 -3.429077 -10.463652 32.700722 -1.228217 3.808602 54.034512 4.215465 15.317580 -10.805314 24.026007 8.431014 9.393086 3.682982 8.750490 
0.577929 0.801952 0.980847 6.051713 -2.966389 88.096468 3.302526 -0.328901 3.748874 -5.059146 -9.333259 2.110217 1.939315 4.769572 -9.712979 0.000000 -0.000000 0.000000 -5.551135 -5.661199 7.781447 -2.326629 4.292361 2.057694 0.230070 -8.051478 -13.549586 0.000000 -0.000000 0.000000 -3.457498 5.899894 -1.629383 -3.401502 1.727677 3.817227 -5.334526 2.548514 1.396749 4.578828 -10.306536 0.272868 3.614174 -21.471688 15.789324 -29.922700 10.842462 1.571026 -45.934527 -1.731414 4.964070 10.453167 -18.700840 -0.899256 -0.421998 -3.024353 -4.774350 32.832803 -0.532130 3.466434 54.036047 3.649730 14.819505 -10.812448 23.970518 9.007277 9.004553 3.686088 8.472169 
0.576928 0.803208 0.980556 5.974570 -3.087374 87.862416 3.196393 -0.030272 3.821262 -4.926160 -9.549513 2.413297 1.784752 4.492960 -9.838386 0.000000 -0.000000 0.000000 -5.675621 -5.483885 7.982541 -2.298541 4.103278 2.073928 0.433843 -7.882423 -13.682084 0.000000 -0.000000 0.000000 -3.779514 5.847201 -1.473892 -2.976598 1.050680 4.015662 -5.091636 2.458579 1.251219 4.148972 -12.610827 -0.130789 2.878413 -24.645136 15.462548 -29.414605 8.459845 1.378144 -44.975188 -4.035352 4.123855 11.395500 -13.222131 -1.108974 0.899696 -3.248957 -1.085276 32.983127 0.244391 3.107183 54.353534 3.477129 14.209616 -11.498272 23.682228 8.903899 7.939512 3.954162 9.173215 
